# xmcd
#
# Track frame offsets: 
#        150
#        73850
#        120201
#        145949
#        197379
#        201704
#        236822
#        268170
#        298941
#
# Disc length: 4427 seconds
#
# Revision: 0
# Processed by: cddbd v1.5.2PL0 Copyright (c) Steve Scherf et al.
# Submitted via: ExactAudioCopy v0.99pb4
#
DISCID=95114909
DTITLE=Cream Remasters - California Days cd1
DYEAR=1968
DGENRE=Blues
TTITLE0=Spoonful (Anaheim 18 Mar 1968)
TTITLE1=Sunshine of Your Love (Anaheim 18 Mar 1968)
TTITLE2=Rollin' and Tumblin' (Anaheim 18 Mar 1968)
TTITLE3=Stepping Out (Anaheim 18 Mar 1968)
TTITLE4=Toad (Anaheim 18 Mar 1968)
TTITLE5=I'm So Glad (Anaheim 18 Mar 1968)
TTITLE6=Sunshine of Your Love (Fillmore West 07 Mar 1968)
TTITLE7=Sunshine of Your Love (Fillmore West 07 Mar 1968)
TTITLE8=Sunshine of Your Love (Fillmore West 07 Mar 1968 remaster)
EXTD=
EXTT0=
EXTT1=
EXTT2=
EXTT3=
EXTT4=
EXTT5=
EXTT6=
EXTT7=
EXTT8=
PLAYORDER=
